<?xml version="1.0" encoding="UTF-8"?><svg id="Layer_1" xmlns="http://www.w3.org/2000/svg" width="512" height="512" viewBox="0 0 512 512"><path d="m492.06,326.13c-4.74,5.67-9.49,11.34-14.36,16.92-2.27,2.56-4.58,5.12-6.89,7.64-1.39,1.47-2.85,2.94-4.37,4.32-1.89,1.81-4.16,3.44-6.47,3.9-.8.17-1.6.21-2.39.13h-142.15c-1.85.42-3.74.08-5.42-.67-.84-.38-1.64-.88-2.43-1.47-.76-.55-1.47-1.18-2.48-2.18-1.01-.97-2.27-2.31-3.48-3.74-1.22-1.39-2.39-2.81-4.32-5.33s-4.58-6.09-7.14-9.78-4.95-7.47-7.18-11.21c-2.23-3.78-4.28-7.51-6.17-11.38-2.48-5-4.74-10.12-6.59-15.37-1.26.71-2.39,1.68-3.36,3.02-.34.46-.63.92-.84,1.3-.46.76-.67,1.26-.88,2.02s-.34,1.72-.29,2.56c0,.42,0,.8.08,1.22s.08.8.17,1.34.25,1.26.42,1.97c.63,2.64,1.6,5.21,2.6,7.81.92,2.31,1.85,4.62,2.94,6.84,1.22,2.64,2.52,5.29,3.86,7.85s2.77,5.16,4.62,8.27c1.89,3.15,4.24,6.84,6.68,10.45,3.69,5.42,7.64,10.71,11.92,15.62,1.22,1.39,2.48,2.73,3.82,3.82.38.29.76.59,1.01.8.55.38.84.55,1.3.76.84.38,1.89.55,2.94.29h142.91c.76.04,1.6-.17,2.18-.42.55-.25.8-.42,1.34-.8.29-.21.63-.46,1.01-.76,1.81-1.47,3.53-3.23,5.21-5,4.58-4.95,9.03-10.12,13.43-15.28,5.79-6.89,11.63-13.81,17.38-20.74.38-.76.76-1.47,1.01-2.27.25-.8.34-1.6.42-2.43l-.04-.04Z" style="fill:#12375b;"/><path d="m392.44,295.69l108.27-61.59c.67-1.51,1.3-3.02,1.51-4.62.08-.55.08-1.05.08-1.47s-.04-.67-.08-.97c-.17-.97-.46-1.97-.88-2.94l-121.37,69.02c-.5.59-.97,1.22-1.43,1.89-.08.13-.13.21-.21.34.04.13.13.25.21.38h13.94l-.04-.04Z" style="fill:#12375b;"/><path d="m283.11,192.12c-1.3,1.68-2.64,3.36-3.9,5.08-.71,1.01-1.43,2.1-2.02,3.23-.13,1.18-.25,2.39-.21,3.57,0,.38,0,.76.04,1.05.04.59.13.88.29,1.39s.5,1.09.97,1.47c.25.17.5.34.76.46s.46.17.67.25c.21.04.42.13.8.17.38.04.88.13,1.43.17,1.3.08,2.64,0,3.95-.04l95.97-.17,11.08-6.93c.76-.46,1.47-1.18,1.93-1.85.46-.63.8-1.26.88-2.02.13-1.09-.42-2.35-1.09-3.11-.46-.46-.88-.76-1.47-.88-.29-.04-.55-.08-.84,0l-98.66.17c-1.47.08-2.9.13-4.37.04-.67-.04-1.34-.13-1.85-.21s-.92-.17-1.26-.29c-1.13-.34-2.18-.84-3.11-1.6v.04Z" style="fill:#12375b;"/><path d="m223.63,344.1c-1.81,2.39-3.61,4.74-5.58,6.97-1.22,1.39-2.48,2.73-3.48,3.74-1.01.97-1.72,1.6-2.48,2.18-1.51,1.13-3.23,2.02-5.08,2.27-.92.13-1.85.08-2.77-.08H62.12c-1.6.08-3.19-.25-4.66-1.01-1.51-.76-2.94-1.89-4.2-3.06-1.47-1.39-2.94-2.85-4.37-4.32-2.31-2.52-4.62-5.08-6.89-7.64-6.89-7.85-13.48-15.83-20.07-23.68h-3.23c-1.72-.34-3.57.13-4.79,1.34-.92.92-1.39,2.23-1.6,3.57-.08.46-.13.92-.08,1.6,0,.67.13,1.6.34,2.48s.59,1.72,1.05,2.52c5.79,6.93,11.59,13.85,17.38,20.74,4.41,5.16,8.82,10.29,13.43,15.28,1.34,1.43,2.73,2.81,4.16,4.11.34.29.67.59,1.05.88s.71.55,1.01.76c.55.38.76.55,1.34.8.59.25,1.43.5,2.18.38h142.91c1.05.34,2.14.13,2.94-.21.46-.21.76-.38,1.3-.76.29-.21.67-.46,1.01-.8,1.43-1.18,2.6-2.48,3.82-3.82,1.43-1.68,2.85-3.32,4.16-5.04,2.43-3.06,4.7-6.21,6.93-9.4,2.23-3.19,4.28-6.47,6.38-9.78Z" style="fill:#12375b;"/><path d="m137.86,208.75l80.52.13c1.3.04,2.64.13,3.95.04.55,0,1.05-.08,1.43-.17.38-.04.59-.13.8-.17s.42-.13.67-.25c.5-.21,1.05-.63,1.34-1.09.17-.25.29-.55.38-.8.17-.5.25-.84.29-1.39,0-.29.04-.67.04-1.05,0-1.18-.08-2.39-.21-3.57-1.26-2.31-2.81-4.37-4.37-6.34l-95.43-.17c-1.18-.13-2.39.71-2.94,1.81-.38.67-.55,1.47-.46,2.23.08.76.42,1.34.88,2.02.46.67,1.18,1.39,1.93,1.85l11.13,6.93h.04Z" style="fill:#12375b;"/><path d="m7.04,216.39c-.88,1.55-1.76,3.06-2.69,4.62-.55,1.13-1.05,2.31-1.55,3.48-.34.84-.59,1.72-.71,2.56-.04.29-.08.55-.08.97s0,.97.08,1.47c.21,1.6.84,3.15,1.47,4.62l108.27,61.59h29.35s.13-.21.21-.34c-.42-.8-1.01-1.51-1.6-2.23L7.75,218.02c-.25-.55-.5-1.09-.71-1.64Z" style="fill:#12375b;"/><path d="m457.8,354.59c1.47.08,2.94.21,9.7-6.97,6.76-7.18,18.77-21.58,30.82-36.02.92-1.55,1.43-3.36,1.43-5.21s-.5-3.78-1.68-4.95c-1.22-1.18-3.11-1.68-4.79-1.34h-117.01c-1.3-1.6-2.6-3.27-2.48-5.04.13-1.76,1.68-3.61,3.27-5.5l131.36-74.73c.84-2.02,1.68-4.03,1.55-6.21s-1.22-4.53-2.35-6.89c-12.26-21.12-24.52-42.23-31.53-52.86-7.05-10.62-8.86-10.75-10.66-10.92h-142.99c-1.3-.21-2.6.25-8.35,6.72-5.75,6.47-15.95,18.98-21.58,26.03-5.63,7.1-6.72,8.73-7.6,10.5-.25,2.94-.55,5.88.92,7.3s4.62,1.26,7.81,1.13l98.57-.17c2.02-.17,4.07.59,5.71,2.27,1.6,1.68,2.73,4.24,2.35,6.93-.42,2.64-2.35,5.37-4.87,6.97l-117.21,73.01c-1.81.97-3.36,2.52-4.49,4.53-1.13,2.02-1.89,4.49.13,11.17,2.02,6.63,6.76,17.42,13.06,28.04,6.26,10.66,14.06,21.16,19.02,26.7,4.95,5.54,7.05,6.13,9.11,5.63h142.91l-.13-.13Z" style="fill:#f4b12d;"/><path d="m204.78,354.68c2.06.5,4.16-.08,9.11-5.63s12.72-16.08,19.02-26.7c6.26-10.66,11.04-21.41,13.06-28.04,2.02-6.63,1.26-9.15.13-11.17s-2.64-3.53-4.49-4.53l-117.21-73.01c-2.52-1.55-4.45-4.32-4.87-6.97s.71-5.25,2.35-6.93c1.6-1.68,3.69-2.39,5.71-2.27l98.57.17c3.19.13,6.34.29,7.81-1.13,1.47-1.39,1.18-4.37.92-7.3-.88-1.76-1.97-3.4-7.6-10.5-5.63-7.1-15.87-19.56-21.58-26.03-5.71-6.47-7.18-6.84-8.48-6.68H54.23c-1.81.13-3.61.29-10.62,10.92-7.01,10.62-19.27,31.74-31.53,52.86-1.09,2.35-2.23,4.7-2.35,6.89-.13,2.18.71,4.2,1.55,6.21l131.36,74.73c1.55,1.85,3.11,3.74,3.27,5.5s-1.18,3.44-2.48,5.12H26.43c-1.68-.38-3.61.08-4.79,1.26-1.22,1.18-1.68,3.11-1.68,4.95s.5,3.65,1.43,5.21c12.05,14.44,24.06,28.84,30.82,36.02,6.76,7.18,8.23,7.05,9.7,6.97h142.91l-.04.08Z" style="fill:#f4b12d;"/></svg>