<?xml version="1.0" standalone="no"?>
<!DOCTYPE svg PUBLIC "-//W3C//DTD SVG 20010904//EN"
 "http://www.w3.org/TR/2001/REC-SVG-20010904/DTD/svg10.dtd">
<svg version="1.0" xmlns="http://www.w3.org/2000/svg"
 width="700.000000pt" height="700.000000pt" viewBox="0 0 700.000000 700.000000"
 preserveAspectRatio="xMidYMid meet">
<metadata>
Created by potrace 1.14, written by Peter Selinger 2001-2017
</metadata>
<g transform="translate(0.000000,700.000000) scale(0.100000,-0.100000)"
fill="#000000" stroke="none">
<path d="M721 5109 c-9 -4 -32 -24 -51 -45 -34 -39 -141 -199 -177 -265 -10
-19 -27 -47 -37 -64 -11 -16 -29 -46 -41 -65 -31 -50 -239 -409 -257 -445 -20
-39 -27 -92 -17 -130 8 -26 39 -47 271 -179 741 -421 1204 -685 1298 -739 19
-11 78 -44 130 -73 95 -53 146 -95 150 -124 4 -30 0 -47 -18 -66 -18 -18 -39
-19 -828 -18 -445 0 -819 -3 -830 -7 -22 -8 -33 -27 -40 -71 -6 -30 22 -89 59
-129 14 -14 71 -82 128 -150 56 -68 105 -126 108 -129 4 -3 29 -32 58 -66 70
-82 122 -135 164 -167 l35 -27 1010 0 1009 0 70 73 c62 65 198 248 236 317 8
14 19 32 25 40 26 34 120 222 157 315 47 117 55 201 24 247 -14 20 -753 495
-827 530 -66 33 -857 539 -872 558 -25 34 -29 80 -11 119 31 64 0 61 798 61
492 0 732 3 745 10 11 6 20 18 21 28 1 9 2 26 3 37 3 40 -19 74 -174 265 -140
174 -237 286 -289 334 l-31 30 -991 0 c-544 1 -998 -2 -1008 -5z"/>
<path d="M4387 5107 c-24 -9 -87 -74 -175 -182 -31 -38 -60 -72 -63 -75 -24
-20 -234 -292 -245 -317 -19 -44 -18 -76 4 -103 l18 -22 737 1 738 2 35 -35
c37 -37 45 -82 22 -132 -11 -23 -118 -100 -253 -181 -11 -6 -81 -50 -155 -96
-74 -47 -393 -245 -708 -442 -430 -268 -578 -365 -593 -388 -21 -36 -24 -92
-8 -152 26 -97 125 -299 232 -475 30 -49 120 -173 184 -252 98 -120 -29 -108
1119 -108 959 0 1000 1 1030 19 35 21 162 159 314 341 57 69 107 127 110 130
3 3 25 29 49 58 35 43 45 63 49 102 4 42 1 52 -20 73 l-24 24 -795 1 c-437 0
-808 1 -825 1 -26 1 -34 7 -45 32 -21 52 9 94 106 150 95 54 740 421 805 457
25 14 59 33 75 42 60 35 591 337 635 362 234 132 230 129 230 201 -1 45 -21
86 -176 349 -295 502 -372 616 -422 619 -91 6 -1969 2 -1985 -4z"/>
<path d="M3849 4347 c-8 -12 -26 -36 -39 -54 -17 -23 -23 -44 -22 -75 3 -79
-47 -74 733 -73 l694 1 55 31 c99 57 140 91 140 117 0 59 36 56 -765 54 -573
-2 -737 0 -747 10 -17 17 -31 15 -49 -11z"/>
<path d="M1705 4326 c-25 -37 -4 -65 93 -126 l87 -55 591 0 c560 0 593 1 612
18 29 27 23 94 -14 145 l-28 39 -663 1 -662 2 -16 -24z"/>
<path d="M62 3978 c-35 -67 -42 -130 -17 -165 8 -11 61 -47 117 -78 57 -32
328 -187 603 -343 275 -157 516 -294 535 -305 19 -10 79 -44 134 -75 l98 -55
187 0 c222 1 211 1 211 12 0 9 -62 51 -140 93 -25 14 -173 98 -330 188 -157
89 -305 174 -330 188 -25 14 -144 81 -265 150 -121 69 -233 133 -250 142 -368
207 -502 285 -511 296 -9 11 -18 0 -42 -48z"/>
<path d="M6805 3909 c-16 -11 -55 -33 -85 -50 -30 -16 -71 -39 -90 -50 -19
-12 -55 -32 -80 -46 -25 -13 -61 -34 -80 -45 -19 -11 -170 -97 -335 -191 -165
-94 -405 -230 -533 -304 -128 -73 -235 -133 -237 -133 -7 0 -161 -93 -177
-107 -10 -9 -16 -19 -14 -22 3 -4 47 -6 100 -5 l95 2 183 105 c101 58 199 114
218 125 19 11 98 55 175 99 77 44 160 91 185 105 25 14 88 50 140 80 52 30
190 108 305 173 276 155 273 153 285 197 12 41 4 88 -14 87 -6 0 -24 -9 -41
-20z"/>
<path d="M3655 2893 c-49 -54 -43 -126 25 -289 76 -179 177 -352 311 -529 77
-103 113 -144 149 -168 23 -16 100 -17 1028 -17 1032 0 1022 0 1064 39 87 81
473 536 487 574 13 33 -1 35 -22 5 -8 -13 -23 -32 -34 -43 -10 -11 -52 -60
-94 -110 -120 -142 -212 -233 -252 -250 -32 -13 -162 -15 -1049 -15 -973 0
-1014 1 -1043 19 -53 33 -105 90 -201 222 -130 176 -252 391 -309 542 -10 26
-21 47 -26 47 -4 0 -20 -12 -34 -27z"/>
<path d="M205 2623 c-13 -8 -28 -25 -31 -39 -7 -27 3 -105 14 -114 8 -5 44
-49 107 -125 140 -172 273 -323 355 -402 41 -39 62 -53 85 -54 16 0 473 -1
1013 -1 964 -1 984 0 1010 19 37 27 127 135 204 244 61 87 94 145 47 83 -45
-58 -103 -113 -135 -129 -28 -13 -156 -15 -1042 -15 -657 0 -1020 4 -1037 10
-49 19 -257 241 -465 497 -29 35 -84 47 -125 26z"/>
</g>
</svg>
